<?xml version="1.0" encoding="UTF-8"?>
<!DOCTYPE svg PUBLIC "-//W3C//DTD SVG 1.1//EN" "http://www.w3.org/Graphics/SVG/1.1/DTD/svg11.dtd">
<svg xmlns="http://www.w3.org/2000/svg" version="1.1" width="30px" height="30px"
  style="shape-rendering:geometricPrecision; text-rendering:geometricPrecision; image-rendering:optimizeQuality; fill-rule:evenodd; clip-rule:evenodd"
  xmlns:xlink="http://www.w3.org/1999/xlink">
  <g>
    <path style="opacity:0.935" fill="#28a6f9"
      d="M 10.5,-0.5 C 12.8333,-0.5 15.1667,-0.5 17.5,-0.5C 23.1411,1.8077 27.1411,5.8077 29.5,11.5C 29.5,13.1667 29.5,14.8333 29.5,16.5C 27.5,23.1667 23.1667,27.5 16.5,29.5C 14.8333,29.5 13.1667,29.5 11.5,29.5C 5.8077,27.1411 1.8077,23.1411 -0.5,17.5C -0.5,15.1667 -0.5,12.8333 -0.5,10.5C 2.16667,5.83333 5.83333,2.16667 10.5,-0.5 Z" />
  </g>
  <g>
    <path style="opacity:1" fill="#f6fbfe"
      d="M 12.5,5.5 C 15.3919,5.72107 18.0585,6.5544 20.5,8C 19.8333,8.66667 19.1667,9.33333 18.5,10C 11.9218,8.73572 9.4218,11.2357 11,17.5C 13.405,18.2744 15.905,18.7744 18.5,19C 19.1667,19.6667 19.8333,20.3333 20.5,21C 12.6701,25.4191 7.67015,23.2525 5.5,14.5C 5.99739,10.0097 8.33072,7.00974 12.5,5.5 Z" />
  </g>
  <g>
    <path style="opacity:1" fill="#eaf6fe"
      d="M 22.5,11.5 C 23.552,11.3505 24.552,11.5172 25.5,12C 23.7957,14.7568 21.4623,16.0901 18.5,16C 15.8938,12.9969 16.5604,12.1636 20.5,13.5C 21.5223,13.1445 22.189,12.4778 22.5,11.5 Z" />
  </g>
</svg>